<svg viewBox="0 0 24 24" xmlns="http://www.w3.org/2000/svg" fill="currentColor" aria-hidden="true">
  <path d="M11.996 0a1.119 1.119 0 00-.057.003 1.174 1.174 0 00-.578.197L1.29 6.39A1.174 1.174 0 00.72 7.39v9.22c0 .412.22.794.57.998l10.07 6.19a1.174 1.174 0 001.286 0l10.07-6.19c.35-.204.57-.586.57-.998V7.39c0-.412-.22-.794-.57-.998L12.645.2a1.174 1.174 0 00-.649-.2zm.004 2.432l8.288 5.088v3.076L15.163 7.75a1.174 1.174 0 00-1.216 0l-5.12 3.143V7.748L12 5.89l-.004-3.458zm-3.17 7.456l3.17 1.946 3.17-1.946 5.118 3.14-3.17 1.948-5.118-3.14-5.12 3.14-3.17-1.948 5.12-3.14zm-5.118 4.088l3.17 1.946v3.892l-3.17-1.946v-3.892zm13.406 0v3.892l-3.17 1.946v-3.892l3.17-1.946zm-8.288 2.57v3.458L12 18.11l3.17 1.894v-3.458l5.118-3.14v3.892L12 23.488l-8.288-6.19v-3.892l5.118 3.14z"></path>
</svg>