<svg viewBox="0 0 24 24" xmlns="http://www.w3.org/2000/svg" fill="currentColor" aria-hidden="true">
  <path d="M10.705 0C7.54 0 4.902 2.285 4.349 5.291a4.525 4.525 0 00-4.33 4.518c0 2.478 1.988 4.497 4.46 4.519h1.552v-2.141H4.5c-1.313 0-2.319-1.1-2.319-2.378 0-1.279 1.006-2.378 2.319-2.378h1.725V6.18h.002C6.55 3.976 8.442 2.141 10.705 2.141c2.265 0 4.157 1.835 4.48 4.04h.002v1.25h1.725c1.313 0 2.319 1.1 2.319 2.379 0 1.278-1.006 2.378-2.319 2.378h-1.531v2.14h1.553c2.472-.02 4.46-2.04 4.46-4.518a4.525 4.525 0 00-4.33-4.518C16.51 2.285 13.87 0 10.705 0zm.057 8.477a3.462 3.462 0 00-3.462 3.462v8.599A3.462 3.462 0 0010.762 24a3.462 3.462 0 003.462-3.462v-8.599a3.462 3.462 0 00-3.462-3.462z"></path>
</svg>